<?xml version="1.0" encoding="UTF-8"?>
<svg version="1.1" xmlns="http://www.w3.org/2000/svg" width="354" height="458">
<path d="M0 0 C0.74330566 -0.00287018 1.48661133 -0.00574036 2.25244141 -0.00869751 C3.8225989 -0.01073726 5.39278186 -0.0052135 6.96289062 0.00732422 C9.36646332 0.02338047 11.76835461 0.00747398 14.171875 -0.01171875 C15.69792038 -0.0097363 17.22396471 -0.00589259 18.75 0 C19.46881348 -0.00607269 20.18762695 -0.01214539 20.92822266 -0.0184021 C25.92085764 0.0519811 25.92085764 0.0519811 28.01808548 1.65191555 C29.62331518 3.71805079 30.01413824 5.16618755 30.49969482 7.73097229 C30.67687672 8.63774436 30.85405861 9.54451643 31.03660965 10.47876644 C31.22143276 11.4906783 31.40625587 12.50259016 31.59667969 13.54516602 C31.80515911 14.63609086 32.01363853 15.72701571 32.22843552 16.85099888 C32.82588339 20.00089971 33.41132147 23.15275583 33.99027824 26.30610132 C34.3872192 28.4648925 34.78741277 30.62306016 35.18836975 32.78110886 C37.25593341 43.91755597 39.28624532 55.06067529 41.31076908 66.20501399 C42.18921154 71.03697336 43.07062084 75.86839135 43.95184326 80.69984436 C46.55912751 94.99761889 49.16231555 109.29613872 51.76379395 123.5949707 C53.79862713 134.77915219 55.83477042 145.96309127 57.87520862 157.14625174 C58.92206781 162.8846898 59.96608176 168.62363595 61.00795794 174.36298072 C61.65287999 177.91210816 62.30033419 181.4607701 62.94851303 185.00930405 C63.24911505 186.65793433 63.54865394 188.30675886 63.8470726 189.95578575 C64.25308609 192.19854077 64.66283163 194.44058197 65.07354736 196.68247986 C65.30211048 197.93867599 65.5306736 199.19487211 65.76616287 200.48913479 C66.22979344 203.32012513 66.22979344 203.32012513 67.375 205.3984375 C70.14932096 205.95034242 72.85674508 206.37196658 75.65844727 206.72705078 C76.96076797 206.90305313 76.96076797 206.90305313 78.28939819 207.08261108 C81.17231459 207.47001484 84.05676871 207.84439584 86.94140625 208.21875 C88.93548525 208.48413759 90.92945704 208.75033189 92.92332458 209.01730347 C98.18139805 209.7191224 103.44086258 210.40992847 108.70068359 211.09851074 C114.06370245 211.80256372 119.42534453 212.51693989 124.78710938 213.23046875 C135.31507884 214.62994301 145.84454549 216.0177958 156.375 217.3984375 C157.54346767 212.35629018 158.61264394 207.36218745 159.27294922 202.22363281 C159.42005341 201.09926819 159.56715759 199.97490356 159.71871948 198.81646729 C159.87083893 197.63179871 160.02295837 196.44713013 160.1796875 195.2265625 C160.518784 192.68088993 160.85865058 190.13531985 161.19921875 187.58984375 C161.72884542 183.60557314 162.25491397 179.62107493 162.76513672 175.63427734 C163.26071785 171.76679524 163.78241618 167.90303336 164.3046875 164.0390625 C164.52679398 162.24991425 164.52679398 162.24991425 164.75338745 160.42462158 C164.90679596 159.3128656 165.06020447 158.20110962 165.21826172 157.05566406 C165.40906815 155.5941391 165.40906815 155.5941391 165.60372925 154.10308838 C166.55535911 150.76596385 167.98783029 148.89475393 170.375 146.3984375 C175.4453969 144.37150347 180.24257313 144.04431764 185.625 144.0859375 C186.36572754 144.09012695 187.10645508 144.09431641 187.86962891 144.09863281 C194.40190858 144.23203153 201.94492436 144.43503881 207.09765625 148.88671875 C209.12231607 152.86793058 209.14818781 156.92448722 209.4375 161.3359375 C209.51274902 162.3357666 209.58799805 163.3355957 209.66552734 164.36572266 C209.827211 166.54561843 209.98253117 168.72599317 210.13232422 170.90673828 C210.38408864 174.52920781 210.66109237 178.14916605 210.94140625 181.76953125 C211.74240496 192.33790139 212.54087517 202.92386335 212.75 213.5234375 C212.77835937 214.80476562 212.80671875 216.08609375 212.8359375 217.40625 C212.375 220.3984375 212.375 220.3984375 210.3515625 222.328125 C209.69929688 222.68132812 209.04703125 223.03453125 208.375 223.3984375 C211.7037207 225.06279785 215.45754472 224.74175824 219.125 224.8984375 C224.28635588 225.12320622 229.28821653 225.41389876 234.375 226.3984375 C234.417721 228.06455655 234.41563832 229.73226635 234.375 231.3984375 C232.57300208 233.20043542 229.81186131 232.76330764 227.37109375 232.93359375 C226.15615234 233.02060547 224.94121094 233.10761719 223.68945312 233.19726562 C222.41005859 233.28427734 221.13066406 233.37128906 219.8125 233.4609375 C218.52923828 233.55181641 217.24597656 233.64269531 215.92382812 233.73632812 C212.74114985 233.96112696 209.55823142 234.18163568 206.375 234.3984375 C207.35549316 234.90689209 208.33598633 235.41534668 209.34619141 235.93920898 C212.375 238.3984375 212.375 238.3984375 213.00927734 241.71899414 C212.98376936 243.06236147 212.92343281 244.40533612 212.8359375 245.74609375 C212.79888199 246.85344627 212.79888199 246.85344627 212.76107788 247.98316956 C212.66671807 250.45777568 212.52364645 252.92653038 212.375 255.3984375 C212.28377902 257.18210846 212.19296853 258.96580045 212.10253906 260.74951172 C211.84652982 265.47984293 211.53577787 270.20491003 211.203125 274.93041992 C210.9985931 277.85606185 210.80740091 280.78238038 210.6171875 283.70898438 C210.4877729 285.60422103 210.35759197 287.49940555 210.2265625 289.39453125 C210.17126373 290.25203476 210.11596497 291.10953827 210.05899048 291.99302673 C208.90301985 307.91672128 208.90301985 307.91672128 205.3125 311.3984375 C195.43722344 314.76023378 183.79540595 316.6123828 173.6875 313.1484375 C170.44852282 311.43727974 168.67607344 310.20350579 166.375 307.3984375 C165.55230713 304.50791931 165.55230713 304.50791931 165.09472656 301.11694336 C164.91484192 299.84560043 164.73495728 298.57425751 164.54962158 297.26438904 C164.3712039 295.88074038 164.19321529 294.49703634 164.015625 293.11328125 C163.82097515 291.69109482 163.6248885 290.26910438 163.4274292 288.8473053 C162.91263024 285.11034639 162.41848637 281.37092968 161.92828369 277.63067627 C161.52458917 274.57619789 161.10677787 271.52373164 160.68811417 268.47127438 C159.82337215 262.16632122 158.96990425 255.85986832 158.13769531 249.55053711 C157.9898761 248.43231064 157.84205688 247.31408417 157.6897583 246.16197205 C157.375 243.3984375 157.375 243.3984375 157.375 240.3984375 C156.33760681 240.5891684 155.30021362 240.77989929 154.23138428 240.97640991 C144.18728682 242.8000117 134.13903624 244.32144219 124.015625 245.625 C122.52727373 245.81971959 121.03897316 246.01482698 119.55072021 246.21029663 C115.69320356 246.71614431 111.83515707 247.21781371 107.97692871 247.71820068 C101.7626538 248.52469855 95.54912571 249.33690441 89.3358078 250.15073776 C87.18178726 250.43212287 85.02747186 250.71115667 82.87310791 250.98989868 C80.91386383 251.24554092 80.91386383 251.24554092 78.91503906 251.50634766 C77.76940491 251.65496246 76.62377075 251.80357727 75.44342041 251.95669556 C72.72612758 252.34788778 70.06336609 252.84824807 67.375 253.3984375 C64.82756278 263.82330712 62.85612613 274.31066245 60.9609375 284.86914062 C60.63068741 286.69548811 60.30013269 288.52178054 59.96929932 290.34802246 C59.26220281 294.25390703 58.55687191 298.16010472 57.85284424 302.06654358 C56.7390098 308.2447015 55.61890358 314.42171216 54.49755859 320.59851074 C51.31136557 338.15342824 48.12964907 355.70914338 44.96289062 373.26757812 C43.21019781 382.9852764 41.45032982 392.70164616 39.68237495 402.41657972 C38.7484535 407.55030813 37.81834073 412.68466355 36.89715576 417.82069397 C36.03239984 422.6420673 35.15834549 427.46166025 34.27709198 432.28004456 C33.95550606 434.04789992 33.63739164 435.81639082 33.32300568 437.58554077 C32.89343443 439.99995338 32.45146509 442.41177679 32.00634766 444.82336426 C31.8848403 445.52364888 31.76333294 446.2239335 31.63814354 446.94543886 C30.81024603 451.33525258 29.60143846 455.17199904 26.375 458.3984375 C23.90086164 458.53653514 21.45658608 458.61152462 18.98046875 458.63671875 C18.23670486 458.6447905 17.49294098 458.65286224 16.72663879 458.66117859 C15.14875632 458.67503462 13.57084369 458.68574996 11.99291992 458.69360352 C9.58258912 458.71079422 7.17363785 458.75466063 4.76367188 458.79882812 C3.23178094 458.80895678 1.69987832 458.81747234 0.16796875 458.82421875 C-0.9119207 458.85048088 -0.9119207 458.85048088 -2.0136261 458.87727356 C-5.39417233 458.86266876 -7.2906679 458.64342135 -10.04956055 456.62182617 C-12.64286282 452.96194646 -12.76547328 449.47867349 -12.92834473 445.07150269 C-12.970345 443.99188263 -13.01234528 442.91226257 -13.05561829 441.79992676 C-13.09720566 440.62055542 -13.13879303 439.44118408 -13.18164062 438.22607422 C-13.22894821 436.98024567 -13.2762558 435.73441711 -13.32499695 434.45083618 C-13.42724055 431.7444649 -13.52796155 429.03808653 -13.62614441 426.33156967 C-13.78144157 422.05429046 -13.94325162 417.77727292 -14.1060791 413.50027466 C-14.50934613 402.8799359 -14.90311156 392.2592467 -15.29681396 381.6385498 C-15.60315088 373.3789476 -15.91170504 365.11943924 -16.22641706 356.86015141 C-16.38826894 352.60580803 -16.54568378 348.35133027 -16.69976044 344.09669852 C-16.81900814 340.83499932 -16.94416121 337.57352561 -17.06835938 334.31201172 C-17.10994675 333.12859192 -17.15153412 331.94517212 -17.19438171 330.72589111 C-17.23638199 329.65191071 -17.27838226 328.5779303 -17.32165527 327.47140503 C-17.35630638 326.53452787 -17.39095749 325.59765072 -17.42665863 324.63238335 C-17.49079517 322.36154672 -17.49079517 322.36154672 -18.625 320.3984375 C-19.88159424 320.35879883 -21.13818848 320.31916016 -22.43286133 320.27832031 C-27.09090932 320.12627745 -31.74770174 319.94883749 -36.40454102 319.76367188 C-38.42089059 319.6870626 -40.43751489 319.61736153 -42.4543457 319.5546875 C-45.35207362 319.46344293 -48.24790797 319.34746143 -51.14453125 319.2265625 C-52.04774612 319.20346008 -52.950961 319.18035767 -53.88154602 319.15655518 C-60.13785124 318.86080406 -60.13785124 318.86080406 -62.6550293 316.47167969 C-62.97511963 315.78750977 -63.29520996 315.10333984 -63.625 314.3984375 C-63.955 313.7384375 -64.285 313.0784375 -64.625 312.3984375 C-64.60928955 312.95829346 -64.5935791 313.51814941 -64.57739258 314.0949707 C-64.51500152 316.6335234 -64.47599782 319.17191479 -64.4375 321.7109375 C-64.41236328 322.59201172 -64.38722656 323.47308594 -64.36132812 324.38085938 C-64.34682617 325.65219727 -64.34682617 325.65219727 -64.33203125 326.94921875 C-64.3163208 327.72950439 -64.30061035 328.50979004 -64.28442383 329.3137207 C-64.71182939 331.92993296 -65.52850366 332.82312564 -67.625 334.3984375 C-70.59897616 334.12807603 -71.47946026 333.54397724 -73.625 331.3984375 C-73.72509766 328.78808594 -73.72509766 328.78808594 -73.5390625 325.5078125 C-73.49652344 324.32316406 -73.45398438 323.13851563 -73.41015625 321.91796875 C-73.30400093 319.41943494 -73.17405857 316.92179036 -73.01953125 314.42578125 C-72.62033405 307.84833584 -72.62033405 307.84833584 -75.43261719 302.20117188 C-77.43802682 300.69689369 -79.36564585 299.47698216 -81.625 298.3984375 C-79.18634348 295.08883223 -77.36520498 293.07995823 -73.625 291.3984375 C-73.64071045 290.59623779 -73.6564209 289.79403809 -73.67260742 288.9675293 C-73.73488583 285.34040346 -73.77396864 281.71339001 -73.8125 278.0859375 C-73.83763672 276.82330078 -73.86277344 275.56066406 -73.88867188 274.25976562 C-73.89833984 273.05126953 -73.90800781 271.84277344 -73.91796875 270.59765625 C-73.9336792 269.48221436 -73.94938965 268.36677246 -73.96557617 267.2175293 C-73.625 264.3984375 -73.625 264.3984375 -72.2355957 262.49926758 C-70.625 261.3984375 -70.625 261.3984375 -68.5625 261.5859375 C-66.625 262.3984375 -66.625 262.3984375 -64.625 264.3984375 C-64.39794922 266.73681641 -64.39794922 266.73681641 -64.4296875 269.625 C-64.43613281 270.65625 -64.44257812 271.6875 -64.44921875 272.75 C-64.46597656 273.83023437 -64.48273438 274.91046875 -64.5 276.0234375 C-64.50902344 277.11140625 -64.51804688 278.199375 -64.52734375 279.3203125 C-64.55096591 282.01323902 -64.58390444 284.70573005 -64.625 287.3984375 C-64.17125 286.4496875 -63.7175 285.5009375 -63.25 284.5234375 C-61.625 281.3984375 -61.625 281.3984375 -59.625 279.3984375 C-56.68403263 279.22304314 -53.83846651 279.16711375 -50.8984375 279.203125 C-49.60421371 279.20736984 -49.60421371 279.20736984 -48.28384399 279.21170044 C-45.5224228 279.22291417 -42.7613235 279.24802066 -40 279.2734375 C-38.13021301 279.28346577 -36.26042095 279.29259188 -34.390625 279.30078125 C-29.80195891 279.32285738 -25.21353407 279.35739516 -20.625 279.3984375 C-23.65512004 269.4618733 -23.65512004 269.4618733 -26.875 259.5859375 C-27.21015625 258.58949219 -27.5453125 257.59304688 -27.890625 256.56640625 C-28.13296875 255.85097656 -28.3753125 255.13554687 -28.625 254.3984375 C-35.22556291 253.37835051 -41.82234594 252.4675737 -48.46484375 251.7734375 C-107.45255057 245.57088693 -107.45255057 245.57088693 -119.625 233.3984375 C-120.26176845 227.75848839 -120.26176845 227.75848839 -119.625 225.3984375 C-100.29810073 206.28748124 -53.84957268 207.05710518 -28.625 204.3984375 C-27.47360965 201.17122535 -26.32988074 197.94134878 -25.1875 194.7109375 C-24.69926758 193.34291992 -24.69926758 193.34291992 -24.20117188 191.94726562 C-23.88857422 191.06103516 -23.57597656 190.17480469 -23.25390625 189.26171875 C-22.96588135 188.45001221 -22.67785645 187.63830566 -22.38110352 186.80200195 C-21.60997826 184.35068516 -21.08317775 181.92529763 -20.625 179.3984375 C-22.36571777 179.43771362 -22.36571777 179.43771362 -24.14160156 179.4777832 C-28.45016168 179.5683336 -32.75863787 179.625704 -37.06787109 179.6730957 C-38.93227281 179.69822897 -40.7965761 179.73234133 -42.66064453 179.77563477 C-45.34171831 179.83634102 -48.02148902 179.86465808 -50.703125 179.88671875 C-51.53555725 179.91252518 -52.3679895 179.9383316 -53.22564697 179.96492004 C-59.0187586 179.96772309 -59.0187586 179.96772309 -62.12011719 177.05541992 C-63.625 174.3984375 -63.625 174.3984375 -64.625 171.3984375 C-64.59881592 172.04917236 -64.57263184 172.69990723 -64.5456543 173.37036133 C-64.44176138 176.31697473 -64.3767008 179.26320351 -64.3125 182.2109375 C-64.27060547 183.23509766 -64.22871094 184.25925781 -64.18554688 185.31445312 C-64.14002328 188.09139238 -64.15607992 190.66047488 -64.625 193.3984375 C-66.89453125 195.72265625 -66.89453125 195.72265625 -69.625 196.3984375 C-70.945 195.7384375 -72.265 195.0784375 -73.625 194.3984375 C-73.625 185.4884375 -73.625 176.5784375 -73.625 167.3984375 C-75.935 166.0784375 -78.245 164.7584375 -80.625 163.3984375 C-80.955 162.4084375 -81.285 161.4184375 -81.625 160.3984375 C-75.875 155.5234375 -75.875 155.5234375 -73.625 154.3984375 C-73.64856567 153.19513794 -73.64856567 153.19513794 -73.67260742 151.9675293 C-73.73488583 148.34040346 -73.77396864 144.71339001 -73.8125 141.0859375 C-73.83763672 139.82330078 -73.86277344 138.56066406 -73.88867188 137.25976562 C-73.89833984 136.05126953 -73.90800781 134.84277344 -73.91796875 133.59765625 C-73.9336792 132.48221436 -73.94938965 131.36677246 -73.96557617 130.2175293 C-73.625 127.3984375 -73.625 127.3984375 -72.2355957 125.49926758 C-70.625 124.3984375 -70.625 124.3984375 -68.5625 124.5859375 C-66.625 125.3984375 -66.625 125.3984375 -64.625 127.3984375 C-64.39794922 129.55322266 -64.39794922 129.55322266 -64.4296875 132.1875 C-64.43613281 133.12851563 -64.44257812 134.06953125 -64.44921875 135.0390625 C-64.46597656 136.02390625 -64.48273438 137.00875 -64.5 138.0234375 C-64.50902344 139.01601562 -64.51804688 140.00859375 -64.52734375 141.03125 C-64.55095884 143.48721884 -64.58389201 145.94270918 -64.625 148.3984375 C-63.9134375 146.696875 -63.9134375 146.696875 -63.1875 144.9609375 C-61.625 141.3984375 -61.625 141.3984375 -60.625 140.3984375 C-58.73029972 140.23937951 -56.82994243 140.14699113 -54.9296875 140.08203125 C-53.14111328 140.01918945 -53.14111328 140.01918945 -51.31640625 139.95507812 C-50.05699219 139.91576172 -48.79757813 139.87644531 -47.5 139.8359375 C-46.29472656 139.79275391 -45.08945313 139.74957031 -43.84765625 139.70507812 C-35.10379402 139.41175367 -26.37279251 139.37971442 -17.625 139.3984375 C-17.60107492 138.72790753 -17.57714985 138.05737757 -17.55249977 137.36652851 C-16.96967081 121.04951717 -16.37683562 104.73290322 -15.7728672 88.41666126 C-15.48103362 80.52623491 -15.19258543 72.63571196 -14.91210938 64.74487305 C-14.66763207 57.86705545 -14.41680019 50.98950402 -14.15834177 44.1121971 C-14.02171765 40.47086395 -13.88827387 36.829477 -13.76243973 33.18775368 C-13.62183165 29.121914 -13.46703851 25.05673316 -13.31103516 20.99145508 C-13.27147202 19.78448471 -13.23190887 18.57751434 -13.19114685 17.33396912 C-13.1239167 15.67027786 -13.1239167 15.67027786 -13.05532837 13.97297668 C-13.02030024 13.0115466 -12.9852721 12.05011652 -12.94918251 11.05955219 C-12.51570316 7.50125326 -11.40982762 4.62005906 -9.4765625 1.61083984 C-6.52945975 -0.3189218 -3.40772982 -0.02878924 0 0 Z " fill="#000000" transform="translate(119.625,-0.3984375)"/>
</svg>
